<svg xmlns="http://www.w3.org/2000/svg" width="1200" height="700" viewBox="0 0 1200 700">
  <defs>
    <linearGradient id="riskGrad" x1="0%" y1="0%" x2="100%" y2="0%">
      <stop offset="0%" style="stop-color:#a855f7;stop-opacity:1" />
      <stop offset="100%" style="stop-color:#ef4444;stop-opacity:1" />
    </linearGradient>
    <filter id="shadow">
      <feDropShadow dx="0" dy="2" stdDeviation="4" flood-color="#000" flood-opacity="0.3"/>
    </filter>
  </defs>

  <!-- Background -->
  <rect width="1200" height="700" fill="#0f172a"/>

  <!-- Navbar -->
  <rect width="1200" height="52" fill="#0f172a"/>
  <rect y="52" width="1200" height="1" fill="#1e293b"/>
  <!-- Shield icon placeholder -->
  <circle cx="24" cy="26" r="9" fill="none" stroke="#38bdf8" stroke-width="2"/>
  <path d="M24 18 L30 22 L30 28 Q30 33 24 36 Q18 33 18 28 L18 22 Z" fill="#38bdf8" opacity="0.3"/>
  <text x="40" y="31" font-family="system-ui,sans-serif" font-size="14" font-weight="700" fill="#f1f5f9" letter-spacing="-0.3">Smart Contract Intelligence Scanner</text>
  <rect x="312" y="18" width="24" height="16" rx="4" fill="#1e293b"/>
  <text x="324" y="30" font-family="system-ui,sans-serif" font-size="10" fill="#64748b" text-anchor="middle">v1.0</text>
  <text x="1165" y="31" font-family="system-ui,sans-serif" font-size="12" fill="#64748b" text-anchor="end">API Docs ↗</text>

  <!-- Search bar area -->
  <rect x="24" y="68" width="840" height="52" rx="14" fill="#1e293b" stroke="#334155" stroke-width="1"/>
  <text x="48" y="99" font-family="system-ui,sans-serif" font-size="13" fill="#475569">Enter contract address (0x…) or paste Solidity source code</text>
  <rect x="880" y="68" width="100" height="52" rx="14" fill="#0284c7"/>
  <text x="930" y="99" font-family="system-ui,sans-serif" font-size="13" font-weight="600" fill="#fff" text-anchor="middle">Scan  ▶</text>

  <!-- LEFT: Risk Score Card -->
  <rect x="24" y="140" width="540" height="200" rx="16" fill="#1e293b" stroke="#7c3aed" stroke-width="1" opacity="0.8"/>
  <!-- Header -->
  <text x="46" y="169" font-family="system-ui,sans-serif" font-size="11" font-weight="700" fill="#c084fc" letter-spacing="2">⚠ CRITICAL</text>
  <!-- Gauge arc background -->
  <path d="M 100 295 A 60 60 0 0 1 220 295" fill="none" stroke="#334155" stroke-width="10" stroke-linecap="round"/>
  <!-- Gauge fill -->
  <path d="M 100 295 A 60 60 0 0 1 220 295" fill="none" stroke="#a855f7" stroke-width="10" stroke-linecap="round" stroke-dasharray="188" stroke-dashoffset="50"/>
  <text x="160" y="285" font-family="system-ui,sans-serif" font-size="26" font-weight="800" fill="#f1f5f9" text-anchor="middle">78</text>
  <text x="160" y="302" font-family="system-ui,sans-serif" font-size="11" fill="#64748b" text-anchor="middle">/ 100</text>
  <!-- Meta info -->
  <text x="260" y="185" font-family="monospace" font-size="11" fill="#64748b">0xA0b86991c6218b36c1d19D4a2e9Eb0cE</text>
  <text x="260" y="210" font-family="system-ui,sans-serif" font-size="13" fill="#94a3b8">Vulnerabilities: <tspan font-weight="700" fill="#f1f5f9">12</tspan></text>
  <text x="260" y="232" font-family="system-ui,sans-serif" font-size="13" fill="#94a3b8">Proxy: <tspan fill="#fbbf24">Yes</tspan></text>
  <text x="260" y="254" font-family="system-ui,sans-serif" font-size="13" fill="#94a3b8">Mint Rights: <tspan fill="#fbbf24">Yes</tspan></text>
  <text x="260" y="276" font-family="system-ui,sans-serif" font-size="13" fill="#94a3b8">Ownership: <tspan fill="#fbbf24">Yes</tspan></text>
  <text x="260" y="298" font-family="system-ui,sans-serif" font-size="13" fill="#94a3b8">Flash Loan: <tspan fill="#64748b">No</tspan></text>
  <text x="260" y="320" font-family="system-ui,sans-serif" font-size="13" fill="#94a3b8">AI Confidence: <tspan fill="#f1f5f9">94%</tspan></text>

  <!-- LEFT: Vulnerability Breakdown Card -->
  <rect x="24" y="356" width="540" height="220" rx="16" fill="#1e293b" stroke="#334155" stroke-width="1"/>
  <text x="46" y="385" font-family="system-ui,sans-serif" font-size="14" font-weight="700" fill="#f1f5f9">Vulnerability Breakdown</text>
  <!-- Bars -->
  <!-- Reentrancy -->
  <rect x="46" y="400" width="440" height="22" rx="4" fill="#1e293b"/>
  <rect x="46" y="400" width="330" height="22" rx="4" fill="#ef444420"/>
  <rect x="46" y="400" width="330" height="22" rx="4" fill="none" stroke="#ef444440" stroke-width="1"/>
  <text x="58" y="416" font-family="system-ui,sans-serif" font-size="12" fill="#ef4444">Reentrancy</text>
  <text x="476" y="416" font-family="system-ui,sans-serif" font-size="12" fill="#ef4444" text-anchor="end">5 × High</text>
  <!-- Access Control -->
  <rect x="46" y="430" width="440" height="22" rx="4" fill="#1e293b"/>
  <rect x="46" y="430" width="220" height="22" rx="4" fill="#f59e0b20"/>
  <text x="58" y="446" font-family="system-ui,sans-serif" font-size="12" fill="#fbbf24">Access Control</text>
  <text x="476" y="446" font-family="system-ui,sans-serif" font-size="12" fill="#fbbf24" text-anchor="end">3 × Medium</text>
  <!-- Integer Overflow -->
  <rect x="46" y="460" width="440" height="22" rx="4" fill="#1e293b"/>
  <rect x="46" y="460" width="176" height="22" rx="4" fill="#a855f720"/>
  <text x="58" y="476" font-family="system-ui,sans-serif" font-size="12" fill="#a855f7">Integer Overflow</text>
  <text x="476" y="476" font-family="system-ui,sans-serif" font-size="12" fill="#a855f7" text-anchor="end">2 × Critical</text>
  <!-- Rug-pull -->
  <rect x="46" y="490" width="440" height="22" rx="4" fill="#1e293b"/>
  <rect x="46" y="490" width="110" height="22" rx="4" fill="#64748b20"/>
  <text x="58" y="506" font-family="system-ui,sans-serif" font-size="12" fill="#94a3b8">Rug-pull Pattern</text>
  <text x="476" y="506" font-family="system-ui,sans-serif" font-size="12" fill="#94a3b8" text-anchor="end">2 × Low</text>
  <!-- Self-destruct -->
  <rect x="46" y="520" width="440" height="22" rx="4" fill="#1e293b"/>
  <rect x="46" y="520" width="88" height="22" rx="4" fill="#64748b20"/>
  <text x="58" y="536" font-family="system-ui,sans-serif" font-size="12" fill="#94a3b8">Self-destruct</text>
  <text x="476" y="536" font-family="system-ui,sans-serif" font-size="12" fill="#94a3b8" text-anchor="end">0 × Low</text>
  <rect x="46" y="550" width="440" height="22" rx="4" fill="#1e293b"/>
  <rect x="46" y="550" width="55" height="22" rx="4" fill="#64748b20"/>
  <text x="58" y="566" font-family="system-ui,sans-serif" font-size="12" fill="#94a3b8">Unchecked Return</text>
  <text x="476" y="566" font-family="system-ui,sans-serif" font-size="12" fill="#94a3b8" text-anchor="end">0 × Info</text>

  <!-- RIGHT: Live Threat Feed -->
  <rect x="580" y="140" width="596" height="436" rx="16" fill="#1e293b" stroke="#334155" stroke-width="1"/>
  <text x="602" y="170" font-family="system-ui,sans-serif" font-size="14" font-weight="700" fill="#f1f5f9">Live Threat Feed</text>
  <!-- Pulsing dot -->
  <circle cx="756" cy="165" r="5" fill="#ef4444" opacity="0.9"/>
  <circle cx="756" cy="165" r="9" fill="#ef4444" opacity="0.3"/>

  <!-- Feed items -->
  <rect x="602" y="182" width="556" height="56" rx="8" fill="#0f172a"/>
  <rect x="602" y="182" width="3" height="56" rx="2" fill="#ef4444"/>
  <text x="616" y="202" font-family="monospace" font-size="11" fill="#94a3b8">0x7f3d...a81b</text>
  <text x="616" y="220" font-family="system-ui,sans-serif" font-size="12" fill="#f1f5f9">Reentrancy + Ownership Takeover</text>
  <rect x="1080" y="187" width="68" height="20" rx="10" fill="#ef444420" stroke="#ef444440" stroke-width="1"/>
  <text x="1114" y="201" font-family="system-ui,sans-serif" font-size="10" fill="#ef4444" text-anchor="middle">CRITICAL</text>
  <text x="1144" y="230" font-family="system-ui,sans-serif" font-size="10" fill="#475569" text-anchor="end">2s ago</text>

  <rect x="602" y="246" width="556" height="56" rx="8" fill="#0f172a"/>
  <rect x="602" y="246" width="3" height="56" rx="2" fill="#ef4444"/>
  <text x="616" y="266" font-family="monospace" font-size="11" fill="#94a3b8">0x2c9f...44de</text>
  <text x="616" y="284" font-family="system-ui,sans-serif" font-size="12" fill="#f1f5f9">Integer Overflow in token transfer</text>
  <rect x="1080" y="251" width="68" height="20" rx="10" fill="#ef444420" stroke="#ef444440" stroke-width="1"/>
  <text x="1114" y="265" font-family="system-ui,sans-serif" font-size="10" fill="#ef4444" text-anchor="middle">HIGH</text>
  <text x="1144" y="294" font-family="system-ui,sans-serif" font-size="10" fill="#475569" text-anchor="end">8s ago</text>

  <rect x="602" y="310" width="556" height="56" rx="8" fill="#0f172a"/>
  <rect x="602" y="310" width="3" height="56" rx="2" fill="#f59e0b"/>
  <text x="616" y="330" font-family="monospace" font-size="11" fill="#94a3b8">0xd04a...992c</text>
  <text x="616" y="348" font-family="system-ui,sans-serif" font-size="12" fill="#f1f5f9">Unprotected selfdestruct function</text>
  <rect x="1075" y="315" width="73" height="20" rx="10" fill="#f59e0b20" stroke="#f59e0b40" stroke-width="1"/>
  <text x="1111" y="329" font-family="system-ui,sans-serif" font-size="10" fill="#fbbf24" text-anchor="middle">MEDIUM</text>
  <text x="1144" y="358" font-family="system-ui,sans-serif" font-size="10" fill="#475569" text-anchor="end">23s ago</text>

  <rect x="602" y="374" width="556" height="56" rx="8" fill="#0f172a"/>
  <rect x="602" y="374" width="3" height="56" rx="2" fill="#f59e0b"/>
  <text x="616" y="394" font-family="monospace" font-size="11" fill="#94a3b8">0x9a1b...c30f</text>
  <text x="616" y="412" font-family="system-ui,sans-serif" font-size="12" fill="#f1f5f9">Access control bypass via delegatecall</text>
  <rect x="1075" y="379" width="73" height="20" rx="10" fill="#f59e0b20" stroke="#f59e0b40" stroke-width="1"/>
  <text x="1111" y="393" font-family="system-ui,sans-serif" font-size="10" fill="#fbbf24" text-anchor="middle">MEDIUM</text>
  <text x="1144" y="422" font-family="system-ui,sans-serif" font-size="10" fill="#475569" text-anchor="end">1m ago</text>

  <rect x="602" y="438" width="556" height="56" rx="8" fill="#0f172a"/>
  <rect x="602" y="438" width="3" height="56" rx="2" fill="#10b981"/>
  <text x="616" y="458" font-family="monospace" font-size="11" fill="#94a3b8">0x5e7c...8a22</text>
  <text x="616" y="476" font-family="system-ui,sans-serif" font-size="12" fill="#f1f5f9">Unchecked return value from external call</text>
  <rect x="1090" y="443" width="54" height="20" rx="10" fill="#10b98120" stroke="#10b98140" stroke-width="1"/>
  <text x="1117" y="457" font-family="system-ui,sans-serif" font-size="10" fill="#10b981" text-anchor="middle">LOW</text>
  <text x="1144" y="486" font-family="system-ui,sans-serif" font-size="10" fill="#475569" text-anchor="end">2m ago</text>

  <rect x="602" y="502" width="556" height="56" rx="8" fill="#0f172a"/>
  <rect x="602" y="502" width="3" height="56" rx="2" fill="#10b981"/>
  <text x="616" y="522" font-family="monospace" font-size="11" fill="#94a3b8">0x1a4d...701e</text>
  <text x="616" y="540" font-family="system-ui,sans-serif" font-size="12" fill="#f1f5f9">Tx.origin authentication — phishing risk</text>
  <rect x="1090" y="507" width="54" height="20" rx="10" fill="#10b98120" stroke="#10b98140" stroke-width="1"/>
  <text x="1117" y="521" font-family="system-ui,sans-serif" font-size="10" fill="#10b981" text-anchor="middle">LOW</text>
  <text x="1144" y="550" font-family="system-ui,sans-serif" font-size="10" fill="#475569" text-anchor="end">4m ago</text>

  <!-- Wallet Graph section header -->
  <text x="24" y="614" font-family="system-ui,sans-serif" font-size="11" font-weight="700" fill="#64748b" letter-spacing="1.5">WALLET RELATIONSHIP GRAPH</text>
  <rect x="24" y="624" width="710" height="48" rx="14" fill="#1e293b" stroke="#334155" stroke-width="1"/>
  <text x="46" y="653" font-family="system-ui,sans-serif" font-size="13" fill="#475569">Enter wallet address (0x…) to visualise relationships</text>
  <rect x="750" y="624" width="110" height="48" rx="14" fill="#0284c7" opacity="0.5"/>
  <text x="805" y="653" font-family="system-ui,sans-serif" font-size="13" fill="#9ca3af" text-anchor="middle">Visualise</text>

  <!-- Footer -->
  <rect y="680" width="1200" height="20" fill="#0f172a"/>
  <rect y="680" width="1200" height="1" fill="#1e293b"/>
  <text x="24" y="694" font-family="system-ui,sans-serif" font-size="10" fill="#475569">Smart Contract Intelligence Scanner © 2025</text>
  <text x="1176" y="694" font-family="system-ui,sans-serif" font-size="10" fill="#475569" text-anchor="end">⭐ GitHub</text>
</svg>
